<?xml version="1.0" encoding="UTF-8" standalone="no"?>
<!-- Generated by SVGo -->

<svg
   xmlns:dc="http://purl.org/dc/elements/1.1/"
   xmlns:cc="http://creativecommons.org/ns#"
   xmlns:rdf="http://www.w3.org/1999/02/22-rdf-syntax-ns#"
   xmlns:svg="http://www.w3.org/2000/svg"
   xmlns="http://www.w3.org/2000/svg"
   xmlns:sodipodi="http://sodipodi.sourceforge.net/DTD/sodipodi-0.dtd"
   xmlns:inkscape="http://www.inkscape.org/namespaces/inkscape"
   width="283.464mm"
   height="108.201mm"
   viewBox="0.000 0.000 283.464 108.201"
   version="1.1"
   id="svg132"
   sodipodi:docname="drawing.svg"
   inkscape:version="0.92.1 r15371">
  <metadata
     id="metadata138">
    <rdf:RDF>
      <cc:Work
         rdf:about="">
        <dc:format>image/svg+xml</dc:format>
        <dc:type
           rdf:resource="http://purl.org/dc/dcmitype/StillImage" />
        <dc:title></dc:title>
      </cc:Work>
    </rdf:RDF>
  </metadata>
  <defs
     id="defs136" />
  <sodipodi:namedview
     pagecolor="#ffffff"
     bordercolor="#666666"
     borderopacity="1"
     objecttolerance="10"
     gridtolerance="10"
     guidetolerance="10"
     inkscape:pageopacity="0"
     inkscape:pageshadow="2"
     inkscape:window-width="1631"
     inkscape:window-height="819"
     id="namedview134"
     showgrid="false"
     inkscape:measure-start="-95.0083,295.026"
     inkscape:measure-end="376.913,198.712"
     inkscape:document-units="mm"
     inkscape:zoom="0.79993042"
     inkscape:cx="588.03691"
     inkscape:cy="103.1682"
     inkscape:window-x="0"
     inkscape:window-y="30"
     inkscape:window-maximized="0"
     inkscape:current-layer="svg132" />
  <polygon
     points="274.463,5.000 274.777,5.012 275.089,5.049 275.397,5.110 275.699,5.195 275.994,5.304 276.279,5.435 276.553,5.589 276.814,5.763 277.061,5.958 277.291,6.171 277.505,6.402 277.699,6.648 277.874,6.910 278.027,7.184 278.159,7.469 278.267,7.763 278.352,8.066 278.414,8.374 278.451,8.686 278.463,9.000 278.463,99.201 278.451,99.514 278.414,99.826 278.352,100.134 278.267,100.437 278.159,100.731 278.027,101.016 277.874,101.290 277.699,101.552 277.505,101.798 277.291,102.029 277.061,102.242 276.814,102.437 276.553,102.611 276.279,102.765 275.994,102.896 275.699,103.005 275.397,103.090 275.089,103.151 274.777,103.188 274.463,103.201 9.000,103.201 8.686,103.188 8.374,103.151 8.066,103.090 7.763,103.005 7.469,102.896 7.184,102.765 6.910,102.611 6.648,102.437 6.402,102.242 6.171,102.029 5.958,101.798 5.763,101.552 5.589,101.290 5.435,101.016 5.304,100.731 5.195,100.437 5.110,100.134 5.049,99.826 5.012,99.514 4.999,99.200 5.000,9.000 5.012,8.686 5.049,8.374 5.110,8.066 5.195,7.763 5.304,7.469 5.435,7.184 5.589,6.910 5.763,6.648 5.958,6.402 6.171,6.171 6.402,5.958 6.648,5.763 6.910,5.589 7.184,5.435 7.469,5.304 7.763,5.195 8.066,5.110 8.374,5.049 8.686,5.012 9.000,4.999"
     style="fill:none;stroke-width:0.2;stroke:black"
     id="polygon2" />
  <polygon
     points="88.700,75.225 88.700,89.425 92.000,89.425 92.000,75.225"
     style="fill:none;stroke-width:0.2;stroke:black"
     id="polygon12" />
  <polygon
     points="112.500,75.225 112.500,89.425 115.800,89.425 115.800,75.225"
     style="fill:none;stroke-width:0.2;stroke:black"
     id="polygon14" />
  <polygon
     points="126.800,75.225 126.800,89.425 130.100,89.425 130.100,75.225"
     style="fill:none;stroke-width:0.2;stroke:black"
     id="polygon16" />
  <polygon
     points="150.600,75.225 150.600,89.425 153.900,89.425 153.900,75.225"
     style="fill:none;stroke-width:0.2;stroke:black"
     id="polygon18" />
  <polygon
     points="23.812,74.675 23.812,88.675 37.812,88.675 37.812,74.675"
     style="fill:none;stroke-width:0.2;stroke:black"
     id="polygon20" />
  <polygon
     points="47.625,74.675 47.625,88.675 61.625,88.675 61.625,74.675"
     style="fill:none;stroke-width:0.2;stroke:black"
     id="polygon22" />
  <polygon
     points="66.675,74.675 66.675,88.675 80.675,88.675 80.675,74.675"
     style="fill:none;stroke-width:0.2;stroke:black"
     id="polygon24" />
  <polygon
     points="95.250,74.675 95.250,88.675 109.250,88.675 109.250,74.675"
     style="fill:none;stroke-width:0.2;stroke:black"
     id="polygon26" />
  <polygon
     points="133.350,74.675 133.350,88.675 147.350,88.675 147.350,74.675"
     style="fill:none;stroke-width:0.2;stroke:black"
     id="polygon28" />
  <polygon
     points="161.925,74.675 161.925,88.675 175.925,88.675 175.925,74.675"
     style="fill:none;stroke-width:0.2;stroke:black"
     id="polygon30" />
  <polygon
     points="180.975,74.675 180.975,88.675 194.975,88.675 194.975,74.675"
     style="fill:none;stroke-width:0.2;stroke:black"
     id="polygon32" />
  <polygon
     points="200.025,74.675 200.025,88.675 214.025,88.675 214.025,74.675"
     style="fill:none;stroke-width:0.2;stroke:black"
     id="polygon34" />
  <polygon
     points="219.075,74.675 219.075,88.675 233.075,88.675 233.075,74.675"
     style="fill:none;stroke-width:0.2;stroke:black"
     id="polygon36" />
  <polygon
     points="238.125,74.675 238.125,88.675 252.125,88.675 252.125,74.675"
     style="fill:none;stroke-width:0.2;stroke:black"
     id="polygon38" />
  <polygon
     points="259.555,74.675 259.555,88.675 273.556,88.675 273.556,74.675"
     style="fill:none;stroke-width:0.2;stroke:black"
     id="polygon40" />
  <polygon
     points="21.431,55.625 21.431,69.625 35.431,69.625 35.431,55.625"
     style="fill:none;stroke-width:0.2;stroke:black"
     id="polygon42" />
  <polygon
     points="47.625,55.625 47.625,69.625 61.625,69.625 61.625,55.625"
     style="fill:none;stroke-width:0.2;stroke:black"
     id="polygon44" />
  <polygon
     points="66.675,55.625 66.675,69.625 80.675,69.625 80.675,55.625"
     style="fill:none;stroke-width:0.2;stroke:black"
     id="polygon46" />
  <polygon
     points="85.725,55.625 85.725,69.625 99.725,69.625 99.725,55.625"
     style="fill:none;stroke-width:0.2;stroke:black"
     id="polygon48" />
  <polygon
     points="104.774,55.625 104.774,69.625 118.774,69.625 118.774,55.625"
     style="fill:none;stroke-width:0.2;stroke:black"
     id="polygon50" />
  <polygon
     points="123.824,55.625 123.824,69.625 137.825,69.625 137.825,55.625"
     style="fill:none;stroke-width:0.2;stroke:black"
     id="polygon52" />
  <polygon
     points="142.875,55.625 142.875,69.625 156.875,69.625 156.875,55.625"
     style="fill:none;stroke-width:0.2;stroke:black"
     id="polygon54" />
  <polygon
     points="161.925,55.625 161.925,69.625 175.925,69.625 175.925,55.625"
     style="fill:none;stroke-width:0.2;stroke:black"
     id="polygon56" />
  <polygon
     points="180.975,55.625 180.975,69.625 194.975,69.625 194.975,55.625"
     style="fill:none;stroke-width:0.2;stroke:black"
     id="polygon58" />
  <polygon
     points="200.025,55.625 200.025,69.625 214.025,69.625 214.025,55.625"
     style="fill:none;stroke-width:0.2;stroke:black"
     id="polygon60" />
  <polygon
     points="219.075,55.625 219.075,69.625 233.075,69.625 233.075,55.625"
     style="fill:none;stroke-width:0.2;stroke:black"
     id="polygon62" />
  <polygon
     points="238.125,55.625 238.125,69.625 252.125,69.625 252.125,55.625"
     style="fill:none;stroke-width:0.2;stroke:black"
     id="polygon64" />
  <polygon
     points="259.555,55.625 259.555,69.625 273.556,69.625 273.556,55.625"
     style="fill:none;stroke-width:0.2;stroke:black"
     id="polygon66" />
  <polygon
     points="9.524,36.575 9.524,50.575 23.525,50.575 23.525,36.575"
     style="fill:none;stroke-width:0.2;stroke:black"
     id="polygon68" />
  <polygon
     points="28.575,36.575 28.575,50.575 42.575,50.575 42.575,36.575"
     style="fill:none;stroke-width:0.2;stroke:black"
     id="polygon70" />
  <polygon
     points="47.625,36.575 47.625,50.575 61.625,50.575 61.625,36.575"
     style="fill:none;stroke-width:0.2;stroke:black"
     id="polygon72" />
  <polygon
     points="66.675,36.575 66.675,50.575 80.675,50.575 80.675,36.575"
     style="fill:none;stroke-width:0.2;stroke:black"
     id="polygon74" />
  <polygon
     points="85.725,36.575 85.725,50.575 99.725,50.575 99.725,36.575"
     style="fill:none;stroke-width:0.2;stroke:black"
     id="polygon76" />
  <polygon
     points="104.774,36.575 104.774,50.575 118.774,50.575 118.774,36.575"
     style="fill:none;stroke-width:0.2;stroke:black"
     id="polygon78" />
  <polygon
     points="123.824,36.575 123.824,50.575 137.825,50.575 137.825,36.575"
     style="fill:none;stroke-width:0.2;stroke:black"
     id="polygon80" />
  <polygon
     points="142.875,36.575 142.875,50.575 156.875,50.575 156.875,36.575"
     style="fill:none;stroke-width:0.2;stroke:black"
     id="polygon82" />
  <polygon
     points="161.925,36.575 161.925,50.575 175.925,50.575 175.925,36.575"
     style="fill:none;stroke-width:0.2;stroke:black"
     id="polygon84" />
  <polygon
     points="180.975,36.575 180.975,50.575 194.975,50.575 194.975,36.575"
     style="fill:none;stroke-width:0.2;stroke:black"
     id="polygon86" />
  <polygon
     points="200.025,36.575 200.025,50.575 214.025,50.575 214.025,36.575"
     style="fill:none;stroke-width:0.2;stroke:black"
     id="polygon88" />
  <polygon
     points="219.075,36.575 219.075,50.575 233.075,50.575 233.075,36.575"
     style="fill:none;stroke-width:0.2;stroke:black"
     id="polygon90" />
  <polygon
     points="238.125,36.575 238.125,50.575 252.125,50.575 252.125,36.575"
     style="fill:none;stroke-width:0.2;stroke:black"
     id="polygon92" />
  <polygon
     points="259.555,36.575 259.555,50.575 273.556,50.575 273.556,36.575"
     style="fill:none;stroke-width:0.2;stroke:black"
     id="polygon94" />
  <polygon
     points="9.524,17.525 9.524,31.525 23.525,31.525 23.525,17.525"
     style="fill:none;stroke-width:0.2;stroke:black"
     id="polygon96" />
  <polygon
     points="28.575,17.525 28.575,31.525 42.575,31.525 42.575,17.525"
     style="fill:none;stroke-width:0.2;stroke:black"
     id="polygon98" />
  <polygon
     points="47.625,17.525 47.625,31.525 61.625,31.525 61.625,17.525"
     style="fill:none;stroke-width:0.2;stroke:black"
     id="polygon100" />
  <polygon
     points="66.675,17.525 66.675,31.525 80.675,31.525 80.675,17.525"
     style="fill:none;stroke-width:0.2;stroke:black"
     id="polygon102" />
  <polygon
     points="85.725,17.525 85.725,31.525 99.725,31.525 99.725,17.525"
     style="fill:none;stroke-width:0.2;stroke:black"
     id="polygon104" />
  <polygon
     points="104.774,17.525 104.774,31.525 118.774,31.525 118.774,17.525"
     style="fill:none;stroke-width:0.2;stroke:black"
     id="polygon106" />
  <polygon
     points="123.824,17.525 123.824,31.525 137.825,31.525 137.825,17.525"
     style="fill:none;stroke-width:0.2;stroke:black"
     id="polygon108" />
  <polygon
     points="142.875,17.525 142.875,31.525 156.875,31.525 156.875,17.525"
     style="fill:none;stroke-width:0.2;stroke:black"
     id="polygon110" />
  <polygon
     points="161.925,17.525 161.925,31.525 175.925,31.525 175.925,17.525"
     style="fill:none;stroke-width:0.2;stroke:black"
     id="polygon112" />
  <polygon
     points="180.975,17.525 180.975,31.525 194.975,31.525 194.975,17.525"
     style="fill:none;stroke-width:0.2;stroke:black"
     id="polygon114" />
  <polygon
     points="200.025,17.525 200.025,31.525 214.025,31.525 214.025,17.525"
     style="fill:none;stroke-width:0.2;stroke:black"
     id="polygon116" />
  <polygon
     points="219.075,17.525 219.075,31.525 233.075,31.525 233.075,17.525"
     style="fill:none;stroke-width:0.2;stroke:black"
     id="polygon118" />
  <polygon
     points="238.125,17.525 238.125,31.525 252.125,31.525 252.125,17.525"
     style="fill:none;stroke-width:0.2;stroke:black"
     id="polygon120" />
  <polygon
     points="259.555,17.525 259.555,31.525 273.556,31.525 273.556,17.525"
     style="fill:none;stroke-width:0.2;stroke:black"
     id="polygon122" />
</svg>
