<?xml version="1.0" encoding="UTF-8" standalone="no"?>
<!-- Generated by SVGo -->

<svg
   xmlns:dc="http://purl.org/dc/elements/1.1/"
   xmlns:cc="http://creativecommons.org/ns#"
   xmlns:rdf="http://www.w3.org/1999/02/22-rdf-syntax-ns#"
   xmlns:svg="http://www.w3.org/2000/svg"
   xmlns="http://www.w3.org/2000/svg"
   xmlns:sodipodi="http://sodipodi.sourceforge.net/DTD/sodipodi-0.dtd"
   xmlns:inkscape="http://www.inkscape.org/namespaces/inkscape"
   width="283.464mm"
   height="108.201mm"
   viewBox="0.000 0.000 283.464 108.201"
   version="1.1"
   id="svg132"
   sodipodi:docname="switch.svg"
   inkscape:version="0.92.1 r15371">
  <metadata
     id="metadata138">
    <rdf:RDF>
      <cc:Work
         rdf:about="">
        <dc:format>image/svg+xml</dc:format>
        <dc:type
           rdf:resource="http://purl.org/dc/dcmitype/StillImage" />
        <dc:title></dc:title>
      </cc:Work>
    </rdf:RDF>
  </metadata>
  <defs
     id="defs136" />
  <sodipodi:namedview
     pagecolor="#ffffff"
     bordercolor="#666666"
     borderopacity="1"
     objecttolerance="10"
     gridtolerance="10"
     guidetolerance="10"
     inkscape:pageopacity="0"
     inkscape:pageshadow="2"
     inkscape:window-width="1920"
     inkscape:window-height="1027"
     id="namedview134"
     showgrid="false"
     inkscape:snap-bbox="true"
     inkscape:snap-bbox-midpoints="true"
     inkscape:snap-global="true"
     inkscape:object-nodes="false"
     inkscape:snap-others="true"
     inkscape:snap-object-midpoints="true"
     inkscape:measure-start="-28.0458,311.473"
     inkscape:measure-end="108.224,342.488"
     inkscape:zoom="0.75768987"
     inkscape:cx="386.45175"
     inkscape:cy="22.775987"
     inkscape:window-x="-8"
     inkscape:window-y="22"
     inkscape:window-maximized="1"
     inkscape:current-layer="layer2" />
  <g
     inkscape:groupmode="layer"
     id="layer1"
     inkscape:label="Layer 1"
     style="display:inline">
    <rect
       id="rect3877"
       width="275"
       height="100"
       x="4.2310014"
       y="4.0999999"
       style="stroke-width:0.26458335;stroke:#050000;fill:#000000;fill-opacity:0;stroke-opacity:1" />
  </g>
  <g
     inkscape:groupmode="layer"
     id="layer2"
     inkscape:label="Layer 2"
     style="display:inline">
    <polygon
       points="88.7,75.225 88.7,89.425 92,89.425 92,75.225 "
       style="fill:none;stroke:#000000;stroke-width:0.2"
       id="polygon12" />
    <polygon
       points="112.5,75.225 112.5,89.425 115.8,89.425 115.8,75.225 "
       style="fill:none;stroke:#000000;stroke-width:0.2"
       id="polygon14" />
    <polygon
       points="126.8,75.225 126.8,89.425 130.1,89.425 130.1,75.225 "
       style="fill:none;stroke:#000000;stroke-width:0.2"
       id="polygon16" />
    <polygon
       points="150.6,75.225 150.6,89.425 153.9,89.425 153.9,75.225 "
       style="fill:none;stroke:#000000;stroke-width:0.2"
       id="polygon18" />
    <polygon
       points="23.812,74.675 23.812,88.675 37.812,88.675 37.812,74.675 "
       style="fill:none;stroke:#000000;stroke-width:0.2"
       id="polygon20" />
    <polygon
       points="47.625,74.675 47.625,88.675 61.625,88.675 61.625,74.675 "
       style="fill:none;stroke:#000000;stroke-width:0.2"
       id="polygon22" />
    <polygon
       points="66.675,74.675 66.675,88.675 80.675,88.675 80.675,74.675 "
       style="fill:none;stroke:#000000;stroke-width:0.2"
       id="polygon24" />
    <polygon
       points="95.25,74.675 95.25,88.675 109.25,88.675 109.25,74.675 "
       style="fill:none;stroke:#000000;stroke-width:0.2"
       id="polygon26" />
    <polygon
       points="133.35,74.675 133.35,88.675 147.35,88.675 147.35,74.675 "
       style="fill:none;stroke:#000000;stroke-width:0.2"
       id="polygon28" />
    <polygon
       points="161.925,74.675 161.925,88.675 175.925,88.675 175.925,74.675 "
       style="fill:none;stroke:#000000;stroke-width:0.2"
       id="polygon30" />
    <polygon
       points="180.975,74.675 180.975,88.675 194.975,88.675 194.975,74.675 "
       style="fill:none;stroke:#000000;stroke-width:0.2"
       id="polygon32" />
    <polygon
       points="200.025,74.675 200.025,88.675 214.025,88.675 214.025,74.675 "
       style="fill:none;stroke:#000000;stroke-width:0.2"
       id="polygon34" />
    <polygon
       points="219.075,74.675 219.075,88.675 233.075,88.675 233.075,74.675 "
       style="fill:none;stroke:#000000;stroke-width:0.2"
       id="polygon36" />
    <polygon
       points="238.125,74.675 238.125,88.675 252.125,88.675 252.125,74.675 "
       style="fill:none;stroke:#000000;stroke-width:0.2"
       id="polygon38" />
    <polygon
       points="259.555,74.675 259.555,88.675 273.556,88.675 273.556,74.675 "
       style="fill:none;stroke:#000000;stroke-width:0.2"
       id="polygon40" />
    <polygon
       points="21.431,55.625 21.431,69.625 35.431,69.625 35.431,55.625 "
       style="fill:none;stroke:#000000;stroke-width:0.2"
       id="polygon42" />
    <polygon
       points="47.625,55.625 47.625,69.625 61.625,69.625 61.625,55.625 "
       style="fill:none;stroke:#000000;stroke-width:0.2"
       id="polygon44" />
    <polygon
       points="66.675,55.625 66.675,69.625 80.675,69.625 80.675,55.625 "
       style="fill:none;stroke:#000000;stroke-width:0.2"
       id="polygon46" />
    <polygon
       points="85.725,55.625 85.725,69.625 99.725,69.625 99.725,55.625 "
       style="fill:none;stroke:#000000;stroke-width:0.2"
       id="polygon48" />
    <polygon
       points="104.774,55.625 104.774,69.625 118.774,69.625 118.774,55.625 "
       style="fill:none;stroke:#000000;stroke-width:0.2"
       id="polygon50" />
    <polygon
       points="123.824,55.625 123.824,69.625 137.825,69.625 137.825,55.625 "
       style="fill:none;stroke:#000000;stroke-width:0.2"
       id="polygon52" />
    <polygon
       points="142.875,55.625 142.875,69.625 156.875,69.625 156.875,55.625 "
       style="fill:none;stroke:#000000;stroke-width:0.2"
       id="polygon54" />
    <polygon
       points="161.925,55.625 161.925,69.625 175.925,69.625 175.925,55.625 "
       style="fill:none;stroke:#000000;stroke-width:0.2"
       id="polygon56" />
    <polygon
       points="180.975,55.625 180.975,69.625 194.975,69.625 194.975,55.625 "
       style="fill:none;stroke:#000000;stroke-width:0.2"
       id="polygon58" />
    <polygon
       points="200.025,55.625 200.025,69.625 214.025,69.625 214.025,55.625 "
       style="fill:none;stroke:#000000;stroke-width:0.2"
       id="polygon60" />
    <polygon
       points="219.075,55.625 219.075,69.625 233.075,69.625 233.075,55.625 "
       style="fill:none;stroke:#000000;stroke-width:0.2"
       id="polygon62" />
    <polygon
       points="238.125,55.625 238.125,69.625 252.125,69.625 252.125,55.625 "
       style="fill:none;stroke:#000000;stroke-width:0.2"
       id="polygon64" />
    <polygon
       points="259.555,55.625 259.555,69.625 273.556,69.625 273.556,55.625 "
       style="fill:none;stroke:#000000;stroke-width:0.2"
       id="polygon66" />
    <polygon
       points="9.524,36.575 9.524,50.575 23.525,50.575 23.525,36.575 "
       style="fill:none;stroke:#000000;stroke-width:0.2"
       id="polygon68" />
    <polygon
       points="28.575,36.575 28.575,50.575 42.575,50.575 42.575,36.575 "
       style="fill:none;stroke:#000000;stroke-width:0.2"
       id="polygon70" />
    <polygon
       points="47.625,36.575 47.625,50.575 61.625,50.575 61.625,36.575 "
       style="fill:none;stroke:#000000;stroke-width:0.2"
       id="polygon72" />
    <polygon
       points="66.675,36.575 66.675,50.575 80.675,50.575 80.675,36.575 "
       style="fill:none;stroke:#000000;stroke-width:0.2"
       id="polygon74" />
    <polygon
       points="85.725,36.575 85.725,50.575 99.725,50.575 99.725,36.575 "
       style="fill:none;stroke:#000000;stroke-width:0.2"
       id="polygon76" />
    <polygon
       points="104.774,36.575 104.774,50.575 118.774,50.575 118.774,36.575 "
       style="fill:none;stroke:#000000;stroke-width:0.2"
       id="polygon78" />
    <polygon
       points="123.824,36.575 123.824,50.575 137.825,50.575 137.825,36.575 "
       style="fill:none;stroke:#000000;stroke-width:0.2"
       id="polygon80" />
    <polygon
       points="142.875,36.575 142.875,50.575 156.875,50.575 156.875,36.575 "
       style="fill:none;stroke:#000000;stroke-width:0.2"
       id="polygon82" />
    <polygon
       points="161.925,36.575 161.925,50.575 175.925,50.575 175.925,36.575 "
       style="fill:none;stroke:#000000;stroke-width:0.2"
       id="polygon84" />
    <polygon
       points="180.975,36.575 180.975,50.575 194.975,50.575 194.975,36.575 "
       style="fill:none;stroke:#000000;stroke-width:0.2"
       id="polygon86" />
    <polygon
       points="200.025,36.575 200.025,50.575 214.025,50.575 214.025,36.575 "
       style="fill:none;stroke:#000000;stroke-width:0.2"
       id="polygon88" />
    <polygon
       points="219.075,36.575 219.075,50.575 233.075,50.575 233.075,36.575 "
       style="fill:none;stroke:#000000;stroke-width:0.2"
       id="polygon90" />
    <polygon
       points="238.125,36.575 238.125,50.575 252.125,50.575 252.125,36.575 "
       style="fill:none;stroke:#000000;stroke-width:0.2"
       id="polygon92" />
    <polygon
       points="259.555,36.575 259.555,50.575 273.556,50.575 273.556,36.575 "
       style="fill:none;stroke:#000000;stroke-width:0.2"
       id="polygon94" />
    <polygon
       points="9.524,17.525 9.524,31.525 23.525,31.525 23.525,17.525 "
       style="fill:none;stroke:#000000;stroke-width:0.2"
       id="polygon96" />
    <polygon
       points="28.575,17.525 28.575,31.525 42.575,31.525 42.575,17.525 "
       style="fill:none;stroke:#000000;stroke-width:0.2"
       id="polygon98" />
    <polygon
       points="47.625,17.525 47.625,31.525 61.625,31.525 61.625,17.525 "
       style="fill:none;stroke:#000000;stroke-width:0.2"
       id="polygon100" />
    <polygon
       points="66.675,17.525 66.675,31.525 80.675,31.525 80.675,17.525 "
       style="fill:none;stroke:#000000;stroke-width:0.2"
       id="polygon102" />
    <polygon
       points="85.725,17.525 85.725,31.525 99.725,31.525 99.725,17.525 "
       style="fill:none;stroke:#000000;stroke-width:0.2"
       id="polygon104" />
    <polygon
       points="104.774,17.525 104.774,31.525 118.774,31.525 118.774,17.525 "
       style="fill:none;stroke:#000000;stroke-width:0.2"
       id="polygon106" />
    <polygon
       points="123.824,17.525 123.824,31.525 137.825,31.525 137.825,17.525 "
       style="fill:none;stroke:#000000;stroke-width:0.2"
       id="polygon108" />
    <polygon
       points="142.875,17.525 142.875,31.525 156.875,31.525 156.875,17.525 "
       style="fill:none;stroke:#000000;stroke-width:0.2"
       id="polygon110" />
    <polygon
       points="161.925,17.525 161.925,31.525 175.925,31.525 175.925,17.525 "
       style="fill:none;stroke:#000000;stroke-width:0.2"
       id="polygon112" />
    <polygon
       points="180.975,17.525 180.975,31.525 194.975,31.525 194.975,17.525 "
       style="fill:none;stroke:#000000;stroke-width:0.2"
       id="polygon114" />
    <polygon
       points="200.025,17.525 200.025,31.525 214.025,31.525 214.025,17.525 "
       style="fill:none;stroke:#000000;stroke-width:0.2"
       id="polygon116" />
    <polygon
       points="219.075,17.525 219.075,31.525 233.075,31.525 233.075,17.525 "
       style="fill:none;stroke:#000000;stroke-width:0.2"
       id="polygon118" />
    <polygon
       points="238.125,17.525 238.125,31.525 252.125,31.525 252.125,17.525 "
       style="fill:none;stroke:#000000;stroke-width:0.2"
       id="polygon120" />
    <polygon
       points="259.555,17.525 259.555,31.525 273.556,31.525 273.556,17.525 "
       style="fill:none;stroke:#000000;stroke-width:0.2"
       id="polygon122" />
  </g>
</svg>
